<?xml version="1.0" encoding="utf-8"?>
<!-- Generator: Adobe Illustrator 19.0.0, SVG Export Plug-In . SVG Version: 6.00 Build 0)  -->
<svg version="1.1" xmlns="http://www.w3.org/2000/svg" xmlns:xlink="http://www.w3.org/1999/xlink" x="0px" y="0px"
	 viewBox="0 0 500 500" style="enable-background:new 0 0 500 500;" xml:space="preserve">
<style type="text/css">
	.st0{display:none;}
	.st1{display:inline;fill:#EBAB00;}
	.st2{enable-background:new    ;}
	.st3{fill:#F4F4F4;}
	.st4{fill:#DDDDDD;}
	.st5{fill:#58595B;}
	.st6{fill:#E6E7E8;}
	.st7{fill:#BFBFBF;}
	.st8{fill:#EDEDED;}
	.st9{fill:#414042;}
	.st10{fill:#CCCCCC;}
	.st11{fill:#D3D3D3;}
	.st12{fill:#5AA9DF;}
	.st13{fill:#FFFFFF;}
	.st14{fill:#FDE0BA;}
	.st15{fill:#DBB288;}
	.st16{fill:#F7D1AF;}
	.st17{fill:#494949;}
	.st18{fill:#3F3F3F;}
	.st19{fill:#939696;}
	.st20{fill:#414142;}
	.st21{fill:#E2E2E2;}
	.st22{fill:#ED5E5A;}
	.st23{fill:#EAEAEA;}
	.st24{fill:#F7F7F7;}
	.st25{fill:#EF5A47;}
	.st26{fill:#912727;}
	.st27{fill:#A5A7AA;}
	.st28{fill:#F4675D;}
	.st29{fill:#E9FAFF;}
	.st30{fill:#5A597F;}
	.st31{fill:#6E6B92;}
	.st32{fill:#808285;}
	.st33{fill:#616263;}
	.st34{fill:#77787A;}
	.st35{fill:#D1D3D4;}
	.st36{fill:#62B9E8;}
	.st37{fill:#276996;}
	.st38{fill:#FCB900;}
	.st39{fill:#DBDBEF;}
	.st40{fill:#728406;}
	.st41{fill:#89A004;}
	.st42{fill:#6D7204;}
	.st43{fill:#747F05;}
</style>
<g id="BACKGROUND" class="st0">
	<rect class="st1" width="500" height="500"/>
</g>
<g id="OBJECTS">
	<g>
		<g>
			<g class="st2">
				<g>
					<polygon class="st3" points="263.4,350.5 303.7,327.1 303.7,332.7 263.4,356.1 					"/>
				</g>
				<path class="st4" d="M244.6,339.7c-2.6-1.5-5.1-4.3-6.6-7.6c-1.6-3.3-2.1-6.7-1.4-9.2l5.7-18.7l-4.7-4.3l-5.7,18.7
					c-1.2,4-0.4,9.3,2.1,14.6c2.5,5.3,6.3,9.7,10.5,12.1l18.7,10.8l0-5.6L244.6,339.7z"/>
				<g>
					<polygon class="st5" points="237.6,299.9 277.9,276.5 282.6,280.8 242.3,304.2 					"/>
				</g>
				<path class="st6" d="M284.9,316.3c-2.6-1.5-5.1-4.3-6.6-7.6c-1.6-3.3-2.1-6.7-1.4-9.2l5.7-18.7l-40.3,23.4l-5.7,18.7
					c-0.7,2.5-0.2,5.8,1.4,9.2c1.6,3.3,4,6.1,6.6,7.6l18.7,10.8l40.3-23.4L284.9,316.3z"/>
			</g>
			<path class="st3" d="M364.4,224.4L137.7,355.3l0.1,18.9c0,3.9,2.8,5.5,6.2,3.5L358.3,254c3.4-2,6.2-6.7,6.2-10.7L364.4,224.4z"/>
			<g>
				<path class="st7" d="M257.2,294.6c2.2-1.3,3.9-0.2,3.9,2.2c0,2.5-1.7,5.5-3.9,6.8c-2.2,1.3-3.9,0.2-3.9-2.2
					C253.3,298.9,255.1,295.9,257.2,294.6z"/>
			</g>
			<path class="st8" d="M137.8,374.2l-0.1-18.9l-8.9-5.2l0.1,18.9c0,1.9,0.7,3.3,1.8,4l8.9,5.2C138.5,377.5,137.8,376.2,137.8,374.2
				z"/>
			<path class="st9" d="M364,81.9L364,81.9l0-0.4c0-2.8-1.5-4.4-3.5-4.4c0,0,0,0,0,0c-0.8,0-1.6,0.3-2.5,0.8L143.3,201.8
				c-0.9,0.5-1.8,1.3-2.6,2.2c-2.1,2.4-3.5,5.8-3.5,8.8l0.4,142.5l226.7-130.9L364,81.9z M148.9,335.9l-0.4-124.3L352.8,93.7
				l0.4,124.3L148.9,335.9z"/>
			<polygon class="st6" points="352.8,93.7 148.6,211.6 148.9,335.9 353.1,218 			"/>
			<path class="st8" d="M362.2,77.6l-8.9-5.2c-0.5-0.3-1.1-0.4-1.7-0.4c0,0,0,0,0,0l0,0c-0.8,0-1.6,0.3-2.5,0.8L134.5,196.7
				c-0.9,0.5-1.8,1.3-2.6,2.2c-2.1,2.4-3.5,5.8-3.5,8.8l0.4,142.5l8.9,5.2l-0.4-142.5c0-3,1.4-6.4,3.5-8.8c0.8-0.9,1.6-1.6,2.6-2.2
				L357.9,78c0.9-0.5,1.8-0.8,2.5-0.8l0,0c0,0,0,0,0,0C361.1,77.2,361.7,77.3,362.2,77.6z"/>
			<g>
				<g class="st2">
					<g>
						<path class="st10" d="M196.1,199c0.6,5.8,5.2,7.9,10.7,4.7c5.5-3.2,10-10.6,10.7-17.1c-0.3,0.2-5.8,4-12.1,7.7
							C202.2,196.2,198.9,198,196.1,199z"/>
					</g>
					<g>
						<path class="st11" d="M196.1,199l-15.3,16.9c-1.7,1.9-3.1,4.3-3.9,6.7l-11.2,29.9l13.9,0.8l4.2-11.4l0.1,52.3l46.2-26.7
							l-0.1-52.3l4.3,6.5l13.8-16.8l-11.4-16.8c-0.8-1.5-2.3-2.2-4-2.1l-15.3,0.8c-0.6,6.5-5.1,13.9-10.7,17.1
							C201.3,207,196.8,204.8,196.1,199z"/>
					</g>
				</g>
			</g>
			<g>
				<path class="st12" d="M264.5,180.7c-1-0.3-1.2-0.7-1.2-1.4c0-0.7,0.3-1.2,0.7-1.4c0.4-0.3,0.7-0.1,0.7,0.6l0,0.4l1.3-0.8l0-0.3
					c0-1.4-0.5-2-1.5-1.7l0-0.8l-1.2,0.7l0,0.8c-1,0.8-1.5,2-1.5,3.4c0,1.2,0.4,1.8,1.6,2.2c1,0.3,1.2,0.7,1.2,1.4
					c0,0.7-0.3,1.2-0.7,1.4c-0.4,0.3-0.7,0.2-0.7-0.6l0-0.8l-1.3,0.8l0,0.7c0,1.4,0.5,2,1.5,1.7l0,0.8l1.2-0.7l0-0.8
					c1-0.8,1.5-2,1.5-3.4C266.1,181.7,265.7,181.1,264.5,180.7z"/>
				<path class="st12" d="M273.3,173.4c0-1.7-0.7-2.2-2.1-1.4c-1.4,0.8-2.1,2.2-2.1,3.8l0,1l1.3-0.8l0-1.1c0-0.7,0.3-1.2,0.7-1.4
					c0.4-0.3,0.7-0.2,0.7,0.8c0,1.1-0.3,2.1-1.4,4c-1,1.9-1.4,3-1.4,4.1l0,1.3l4.1-2.4l0-1.5l-2.7,1.5c0-0.1,0-0.1,0-0.2
					c0-0.5,0.2-1.2,1.1-2.7C272.9,176.1,273.3,174.8,273.3,173.4z"/>
				<path class="st12" d="M276.3,169.1c-1.4,0.8-2.1,2.2-2.1,3.8l0,5.4c0,1.7,0.8,2.2,2.2,1.4c1.4-0.8,2.1-2.2,2.1-3.8l0-5.4
					C278.5,168.8,277.7,168.3,276.3,169.1z M276.3,178.2c-0.4,0.3-0.7,0.1-0.7-0.6l0-5.6c0-0.7,0.3-1.2,0.7-1.4
					c0.5-0.3,0.7-0.1,0.7,0.6l0,5.6C277.1,177.5,276.8,177.9,276.3,178.2z"/>
				<path class="st12" d="M283.6,167.5c0-1.7-0.8-2.2-2.2-1.4c-1.4,0.8-2.1,2.2-2.1,3.8l0,5.4c0,1.7,0.8,2.2,2.2,1.4
					c1.4-0.8,2.1-2.2,2.1-3.8L283.6,167.5z M281.5,175.2c-0.5,0.3-0.7,0.1-0.7-0.6l0-5.6c0-0.7,0.3-1.2,0.7-1.4
					c0.4-0.3,0.7-0.1,0.7,0.6l0,5.6C282.2,174.5,281.9,174.9,281.5,175.2z"/>
			</g>
			<g>
				<g>
					<polygon class="st13" points="324.4,176.5 324.4,182 261.9,218.1 261.9,212.6 					"/>
				</g>
				<g>
					<polygon class="st13" points="308.5,173.9 308.6,179.3 261.9,206.3 261.9,200.8 					"/>
				</g>
			</g>
			<g>
				<g>
					<path class="st12" d="M270.5,230.1c0.4-0.2,0.5-0.1,0.5,0.1l0,0c0,0.2-0.2,0.5-0.6,0.7l-0.8,0.5l0-0.9L270.5,230.1z"/>
				</g>
				<g>
					<path class="st12" d="M270.9,228.3c0,0.3-0.2,0.5-0.5,0.7l-0.7,0.4l0-0.8l0.7-0.4C270.7,228,270.9,228,270.9,228.3L270.9,228.3
						z"/>
				</g>
				<path class="st12" d="M284.8,215.6l-16.8,9.7c-2.8,1.6-5,5.5-5,8.7c0,3.2,2.3,4.5,5.1,2.9l16.8-9.7c2.8-1.6,5-5.5,5-8.7
					C289.8,215.2,287.5,214,284.8,215.6z"/>
				<g>
					<path class="st13" d="M277,222.9l0,3.2c0,0.7-0.3,1.2-0.8,1.4c-0.5,0.3-0.8,0.1-0.8-0.6l0-3.1l-1.7,1l0,3.1
						c0,1.9,1,2.1,2.5,1.3c1.5-0.9,2.5-2.2,2.5-4.1l0-3.1L277,222.9z"/>
					<polygon class="st13" points="285,218.4 283.1,219.4 282.2,221.8 281.3,220.4 279.4,221.5 281.3,224.1 281.3,226.1 283,225.2 
						283,223.1 					"/>
					<path class="st13" d="M271.7,228.6c0.5-0.5,0.9-1.1,0.9-1.8c0-0.4-0.1-0.6-0.3-0.7c-0.3-0.2-0.7-0.1-1.5,0.3l-2.9,1.6l0,5.7
						l2.8-1.6c1.3-0.7,2-1.8,2-2.7v0C272.8,228.5,272.4,228.4,271.7,228.6z M269.6,228.4l0.7-0.4c0.4-0.2,0.5-0.2,0.5,0.1l0,0
						c0,0.3-0.2,0.5-0.5,0.7l-0.7,0.4L269.6,228.4z M270.5,230.8l-0.9,0.5l0-0.9l0.9-0.5c0.4-0.2,0.6-0.1,0.6,0.1l0,0
						C271.1,230.3,270.9,230.6,270.5,230.8z"/>
				</g>
			</g>
		</g>
		<g>
			<g class="st2">
				<g>
					<polygon class="st14" points="176.1,334.6 121.7,366.2 67,334.6 121.4,303 					"/>
				</g>
				<g>
					<polygon class="st15" points="176.1,334.6 175.9,393.8 121.6,425.4 121.7,366.2 					"/>
				</g>
				<g>
					<polygon class="st16" points="121.7,366.2 121.6,425.4 66.8,393.8 67,334.6 					"/>
				</g>
				<polygon class="st17" points="89.3,321.6 144,353.2 157.9,345.2 103.2,313.6 				"/>
				<polygon class="st18" points="157.9,366.3 157.9,345.2 151.8,348.7 144,353.2 144,374.4 				"/>
				<g>
					<polygon class="st13" points="84.2,350.2 84.2,359.8 70.8,352 70.8,342.5 					"/>
				</g>
			</g>
		</g>
		<g>
			<g class="st2">
				<g>
					<polygon class="st14" points="152.8,281.9 98.4,313.5 43.7,281.9 98,250.3 					"/>
				</g>
				<g>
					<polygon class="st15" points="152.8,281.9 152.6,341.1 98.2,372.7 98.4,313.5 					"/>
				</g>
				<g>
					<polygon class="st16" points="98.4,313.5 98.2,372.7 43.5,341.1 43.7,281.9 					"/>
				</g>
				<polygon class="st17" points="66,268.9 120.7,300.5 134.6,292.5 79.9,260.9 				"/>
				<polygon class="st18" points="134.6,313.6 134.6,292.5 128.5,296 120.7,300.5 120.7,321.7 				"/>
				<g>
					<polygon class="st13" points="60.9,297.5 60.9,307.1 47.4,299.3 47.5,289.8 					"/>
				</g>
			</g>
		</g>
		<g>
			<g class="st2">
				<g>
					<polygon class="st14" points="448.9,211.3 394.5,242.9 339.8,211.3 394.2,179.7 					"/>
				</g>
				<g>
					<polygon class="st15" points="448.9,211.3 448.7,270.5 394.4,302.1 394.5,242.9 					"/>
				</g>
				<g>
					<polygon class="st16" points="394.5,242.9 394.4,302.1 339.6,270.5 339.8,211.3 					"/>
				</g>
				<polygon class="st17" points="362.1,198.4 416.9,230 430.7,221.9 376,190.3 				"/>
				<polygon class="st18" points="430.7,243 430.7,221.9 424.6,225.4 416.9,230 416.9,251.1 				"/>
				<g>
					<polygon class="st13" points="357.1,227 357,236.5 343.6,228.7 343.6,219.2 					"/>
				</g>
			</g>
		</g>
		<g>
			<g>
				<path class="st19" d="M298.9,405.3c0-5.3-3.8-7.5-8.5-4.9L298.9,405.3z"/>
			</g>
			<path class="st20" d="M253.3,380.4c2-1.2,3.9-1.3,5.2-0.5l37,21.5c-1.3-0.8-3.2-0.7-5.2,0.5c-4,2.3-7.3,8-7.3,12.7
				c0,2.3,0.8,3.9,2.1,4.7l-37-21.5c-1.3-0.8-2.1-2.4-2.1-4.7C246,388.4,249.2,382.7,253.3,380.4z"/>
			<g>
				<path class="st21" d="M290.3,400.5c4.7-2.7,8.6-0.5,8.6,4.9l1.6-0.9l0.9-0.5v0l11.5-6.7l-0.1-43.2l-68.7,39.7l0.1,43.2
					l37.6-21.7C281.8,409.8,285.6,403.2,290.3,400.5z"/>
				<path class="st22" d="M282.4,411.2l-38.2,22.1l0,3.7l37.6-21.7C281.8,413.9,282,412.6,282.4,411.2z"/>
				<g>
					<polygon class="st23" points="244.1,393.8 206.7,372 206.8,415.2 244.2,437 					"/>
				</g>
				<g>
					<polygon class="st24" points="312.8,354.1 275.4,332.3 206.7,372 244.1,393.8 					"/>
				</g>
				<polygon class="st22" points="286.1,378.7 312.8,363.3 312.9,370.7 286.1,386.1 				"/>
				<polygon class="st22" points="312.9,372.6 292.1,384.6 292.1,392 312.9,380 				"/>
				<polygon class="st25" points="241,431.3 244.2,433.2 244.2,437 241,435.1 				"/>
				<g>
					<path class="st22" d="M313,397.3l0-3.7l-13.2,7.6l-1.5,0.8c0.4,0.9,0.6,2,0.7,3.3l1.6-0.9l0.9-0.5v0L313,397.3z"/>
				</g>
			</g>
			<polygon class="st13" points="167.2,425 168.4,424.2 168.4,425.7 			"/>
			<g>
				<path class="st26" d="M225.3,440.8l-37-21.5c1.5,0.9,2.5,2.8,2.5,5.5l37,21.5C227.8,443.6,226.8,441.7,225.3,440.8z"/>
			</g>
			<path class="st20" d="M182.2,421.3c2-1.2,3.9-1.3,5.2-0.5l37,21.5c-1.3-0.8-3.2-0.7-5.2,0.5c-4,2.3-7.3,8-7.3,12.7
				c0,2.3,0.8,3.9,2.1,4.7l-37-21.5c-1.3-0.8-2.1-2.4-2.1-4.7C174.8,429.3,178.1,423.6,182.2,421.3z"/>
			<g>
				<path class="st5" d="M219.2,442.8c-4,2.3-7.3,8-7.3,12.7c0,4.7,3.3,6.5,7.4,4.2c4-2.3,7.3-8,7.3-12.7
					C226.5,442.3,223.2,440.4,219.2,442.8z"/>
			</g>
			<g>
				<path class="st27" d="M219.2,445.5c-2.7,1.6-4.9,5.4-4.9,8.5c0,3.1,2.2,4.4,5,2.8c2.7-1.6,4.9-5.4,4.9-8.5
					C224.1,445.2,221.9,443.9,219.2,445.5z"/>
			</g>
			<g>
				<path class="st20" d="M219.2,448.7c-1.2,0.7-2.2,2.4-2.2,3.8c0,1.4,1,2,2.2,1.3c1.2-0.7,2.2-2.4,2.2-3.8
					C221.4,448.5,220.4,448,219.2,448.7z"/>
			</g>
			<polygon class="st28" points="205.4,442.3 168.4,420.7 179.7,406.5 216.7,428 			"/>
			<g>
				<polygon class="st25" points="205.4,442.3 168.4,420.7 168.4,437.7 205.4,459.2 				"/>
			</g>
			<g>
				<polygon class="st28" points="241.8,396 204.8,374.5 184.5,386.2 221.5,407.7 				"/>
			</g>
			<polygon class="st25" points="221.5,407.7 184.5,386.2 179.7,406.5 216.7,428 			"/>
			<polygon class="st29" points="218.5,409 186.2,390.2 182.7,405.2 215,424 			"/>
			<path class="st22" d="M205.4,442.3l11.3-14.2l4.8-20.3l20.3-11.7v42.2l-14,8.1c0-5.4-3.9-7.6-8.6-4.9c-4.7,2.7-8.5,9.3-8.5,14.8
				l-5.3,3V442.3z"/>
			<path class="st28" d="M240.5,398.3v39.1l-11.6,6.7c-0.7-3.2-2.8-5.2-5.9-5.2c-1.4,0-2.9,0.5-4.5,1.3c-0.2,0.1-0.4,0.3-0.6,0.4
				v-12l4.8-20.1L240.5,398.3z"/>
			<polygon class="st29" points="224.1,409.5 239.3,400.8 239.3,413.4 220.6,424.2 			"/>
			<g>
				<path class="st30" d="M235,419.6l3.5-2c0.2-0.1,0.4-0.1,0.6,0l0,0l0.2,0.1l-0.1,0.1c0,0.1,0.1,0.2,0.1,0.3l-3,1.7l-1.6,1.1
					l-0.2,0.3l-0.3-0.2C234.2,420.5,234.5,419.9,235,419.6z"/>
				<g>
					<path class="st31" d="M235.2,419.8c-0.4,0.3-0.8,0.9-0.8,1.4l5.1-2.9c0-0.5-0.4-0.7-0.8-0.5L235.2,419.8z"/>
				</g>
			</g>
			<g>
				<g>
					<polygon class="st5" points="188.7,436.2 188.7,440.7 189.2,441 189.3,436.5 					"/>
				</g>
				<g>
					<polygon class="st5" points="191.4,437.7 191.4,442.2 191.9,442.5 191.9,438 					"/>
				</g>
				<path class="st9" d="M178.3,435.6l16,9.2l0-6.3l-16-9.2L178.3,435.6z M192.7,443l0-4.5l0.5,0.3l0,4.5L192.7,443z M191.4,442.2
					l0-4.5l0.5,0.3l0,4.5L191.4,442.2z M190,441.5l0-4.5l0.5,0.3l0,4.5L190,441.5z M188.7,440.7l0-4.5l0.5,0.3l0,4.5L188.7,440.7z
					 M187.4,439.9l0-4.5l0.5,0.3l0,4.5L187.4,439.9z M186,439.1l0-4.5l0.5,0.3l0,4.5L186,439.1z M184.7,438.4l0-4.5l0.5,0.3l0,4.5
					L184.7,438.4z M183.4,437.6l0-4.5l0.5,0.3l0,4.5L183.4,437.6z M182,436.8l0-4.5l0.5,0.3l0,4.5L182,436.8z M180.7,436.1l0-4.5
					l0.5,0.3l0,4.5L180.7,436.1z M179.4,435.3l0-4.5l0.5,0.3l0,4.5L179.4,435.3z"/>
				<g>
					<polygon class="st5" points="179.4,430.8 179.4,435.3 179.9,435.6 179.9,431.1 					"/>
				</g>
				<g>
					<polygon class="st5" points="180.7,431.6 180.7,436.1 181.2,436.4 181.2,431.9 					"/>
				</g>
				<g>
					<polygon class="st5" points="182,432.3 182,436.8 182.6,437.1 182.6,432.6 					"/>
				</g>
				<g>
					<polygon class="st5" points="183.4,433.1 183.4,437.6 183.9,437.9 183.9,433.4 					"/>
				</g>
				<g>
					<polygon class="st5" points="184.7,433.9 184.7,438.4 185.2,438.7 185.2,434.2 					"/>
				</g>
				<g>
					<polygon class="st5" points="186,434.6 186,439.1 186.6,439.5 186.6,435 					"/>
				</g>
				<g>
					<polygon class="st5" points="187.4,435.4 187.4,439.9 187.9,440.2 187.9,435.7 					"/>
				</g>
				<g>
					<polygon class="st5" points="190,437 190,441.5 190.6,441.8 190.6,437.3 					"/>
				</g>
				<g>
					<polygon class="st5" points="192.7,438.5 192.7,443 193.2,443.3 193.3,438.8 					"/>
				</g>
				<g>
					<polygon class="st32" points="194.3,438.5 194.7,438.3 178.7,429.1 178.3,429.3 					"/>
				</g>
				<g>
					<polygon class="st5" points="194.3,444.8 194.6,444.6 194.7,438.3 194.3,438.5 					"/>
				</g>
			</g>
			<g>
				<polygon class="st33" points="205.4,454.6 205.4,460.5 166.1,437.7 166.1,431.8 				"/>
				<polygon class="st5" points="209,458.4 205.4,460.5 205.4,454.6 209,452.5 				"/>
				<polygon class="st34" points="207.9,451.8 209,452.5 205.4,454.6 205.4,453.3 				"/>
				<polygon class="st32" points="168.4,433.1 166.1,431.8 168.4,430.5 				"/>
				<polygon class="st32" points="205.4,454.6 168.1,432.9 168.4,431.8 205.4,453.3 205.4,459.2 205.4,459.2 				"/>
			</g>
			<g>
				<polygon class="st3" points="205.4,449.1 199.7,445.8 199.7,443.5 205.4,446.7 				"/>
				<polygon class="st13" points="205.4,446 208.1,444.5 208.7,444.9 205.4,446.8 				"/>
				<polygon class="st13" points="205.4,446 200.3,443.1 199.7,443.5 205.4,446.8 				"/>
				<polygon class="st8" points="208.7,447.2 205.4,449.1 205.4,446.7 208.7,444.9 				"/>
			</g>
			<polygon class="st3" points="172.8,430.6 167.2,427.3 167.2,425 172.8,428.2 			"/>
			<polygon class="st13" points="173.4,427.9 167.8,424.6 167.2,425 172.8,428.2 			"/>
			<polygon class="st8" points="173.4,427.9 173.4,430.2 172.8,430.6 172.8,428.2 			"/>
			<g>
				<polygon class="st25" points="176.4,440.3 191.8,449.2 191.8,454.4 176.3,445.5 				"/>
				<g>
					<polygon class="st28" points="191.8,449.2 192.4,448.9 177,440 176.4,440.3 					"/>
				</g>
				<g>
					<polygon class="st22" points="191.8,454.4 192.4,454.1 192.4,448.9 191.8,449.2 					"/>
				</g>
			</g>
			<polygon class="st13" points="194.5,412.1 210.8,404.5 200.9,398.8 184.6,406.3 			"/>
			<polygon class="st13" points="200.3,415.5 216.7,407.9 212.2,405.3 195.9,412.9 			"/>
			<g>
				<path class="st20" d="M293.2,404.8c-1.2,0.7-2.2,2.4-2.2,3.8c0,1.4,1,2,2.2,1.3s2.2-2.4,2.2-3.8
					C295.4,404.7,294.4,404.1,293.2,404.8z"/>
			</g>
			<g>
				<path class="st5" d="M290.3,401.9c-4,2.3-7.3,8-7.3,12.7c0,4.7,3.3,6.5,7.4,4.2s7.3-8,7.3-12.7
					C297.7,401.4,294.4,399.6,290.3,401.9z"/>
			</g>
			<g>
				<path class="st27" d="M290.3,404.6c-2.7,1.6-4.9,5.4-4.9,8.5c0,3.1,2.2,4.4,5,2.8c2.7-1.6,4.9-5.4,4.9-8.5
					C295.3,404.3,293.1,403.1,290.3,404.6z"/>
			</g>
			<g>
				<path class="st20" d="M290.3,407.8c-1.2,0.7-2.2,2.4-2.2,3.8c0,1.4,1,2,2.2,1.3c1.2-0.7,2.2-2.4,2.2-3.8
					C292.6,407.7,291.6,407.1,290.3,407.8z"/>
			</g>
		</g>
		<g>
			<g>
				<polygon class="st24" points="276.3,74.4 272.8,72.4 287.7,63.8 291.1,65.8 				"/>
			</g>
			<path class="st24" d="M320.7,30.3c2.8-1.6,5.1-0.3,5.1,2.9l0.1,28.2c0,3.2-2.3,7.2-5.1,8.8l-24.5,14.2c-2.8,1.6-5.1,0.3-5.1-2.9
				l0-12.5l0-3.2l0-12.5c0-3.2,2.3-7.2,5.1-8.8L320.7,30.3z"/>
			<g>
				<path class="st35" d="M305.4,68.4c-0.9,0.5-1.6,1.7-1.6,2.7c0,1,0.7,1.4,1.6,0.9c0.9-0.5,1.6-1.7,1.6-2.7
					C307,68.3,306.3,67.9,305.4,68.4z"/>
				<path class="st35" d="M313.8,63.6c-0.9,0.5-1.6,1.7-1.6,2.7c0,1,0.7,1.4,1.6,0.9c0.9-0.5,1.6-1.7,1.6-2.7
					C315.4,63.4,314.7,63.1,313.8,63.6z"/>
			</g>
			<path class="st35" d="M317.8,44.5l-15.4,8.9l-0.3-1.1c-0.4-1.2-1.5-1.5-2.8-0.8l-2.1,1.2c-0.5,0.3-0.8,0.9-0.8,1.5
				c0,0.5,0.4,0.8,0.9,0.5l2.1-1.2c0.5-0.3,1-0.2,1.2,0.3l2.9,9.3l-1.1,4.8c-0.1,0.3,0,0.6,0.1,0.8c0.2,0.2,0.4,0.1,0.7,0l12.6-7.3
				c0.5-0.3,0.8-0.9,0.8-1.5c0-0.5-0.4-0.8-0.9-0.5l-11.4,6.6l0.6-2.6l11.1-6.4c0.7-0.4,1.3-1.3,1.4-2.1l1.6-9.6
				C319.1,44.5,318.5,44.1,317.8,44.5z M307.3,59c-0.5,0.3-0.9,0.1-0.9-0.5l0-3.4c0-0.5,0.4-1.2,0.9-1.5c0.5-0.3,0.9-0.1,0.9,0.5
				l0,3.4C308.2,58.1,307.8,58.7,307.3,59z M310.8,57c-0.5,0.3-0.9,0.1-0.9-0.5l0-3.4c0-0.5,0.4-1.2,0.9-1.5
				c0.5-0.3,0.9-0.1,0.9,0.5l0,3.4C311.7,56,311.3,56.7,310.8,57z M314.3,55c-0.5,0.3-0.9,0.1-0.9-0.5l0-3.4c0-0.5,0.4-1.2,0.9-1.5
				c0.5-0.3,0.9-0.1,0.9,0.5l0,3.4C315.2,54,314.8,54.7,314.3,55z"/>
			<g>
				<path class="st8" d="M291.2,81.5l0-12.5l-3.4-2l0,12.5c0,1.6,0.6,2.7,1.5,3.3l3.4,2C291.7,84.2,291.2,83.1,291.2,81.5z"/>
				<path class="st8" d="M320.9,28c-0.9-0.5-2.2-0.5-3.6,0.4l-24.5,14.2c-2.8,1.6-5.1,5.6-5.1,8.8l0,12.5l3.4,2l0-12.5
					c0-3.2,2.3-7.2,5.1-8.8l24.5-14.2c1.4-0.8,2.7-0.9,3.6-0.4L320.9,28z"/>
			</g>
			<g>
				<polygon class="st24" points="276.3,74.4 291.1,65.8 291.1,69 276.3,77.5 				"/>
			</g>
			<path class="st24" d="M271.1,59c2.8-1.6,5.1-0.3,5.1,2.9l0,12.5l0,3.2l0,12.5c0,3.2-2.3,7.2-5.1,8.8L246.7,113
				c-2.8,1.6-5.1,0.3-5.1-2.9l0-12.5l0-3.2l0-12.5c0-3.2,2.3-7.2,5.1-8.8L271.1,59z"/>
			<g>
				<polygon class="st35" points="269,75.2 270.2,74.5 270.2,71 260.1,76.8 260.1,84.3 269,79.1 				"/>
				<polygon class="st35" points="257.7,78.2 247.9,83.8 247.9,87.4 249.1,86.7 249.1,90.6 257.7,85.7 				"/>
				<polygon class="st35" points="260.1,87 260.1,92.7 269.1,87.5 269.1,81.8 				"/>
				<polygon class="st35" points="249.1,93.3 249.1,99 257.7,94.1 257.7,88.4 				"/>
			</g>
			<path class="st8" d="M271.3,56.6c-0.9-0.5-2.2-0.5-3.6,0.4l-24.5,14.2c-2.8,1.6-5.1,5.6-5.1,8.8l0,12.5l0,3.2l0,12.5
				c0,1.6,0.6,2.7,1.5,3.3l3.4,2c-0.9-0.5-1.5-1.7-1.5-3.3l0-12.5l0-3.2l0-12.5c0-3.2,2.3-7.2,5.1-8.8L271.1,59
				c1.4-0.8,2.7-0.9,3.6-0.4L271.3,56.6z"/>
			<g class="st2">
				<g>
					<polygon class="st24" points="226.5,106.3 226.5,103.1 241.5,94.4 241.5,97.6 					"/>
				</g>
				<g>
					<polygon class="st24" points="226.5,106.3 223,104.3 223,101.1 226.5,103.1 					"/>
				</g>
				<g>
					<polygon class="st24" points="226.5,103.1 223,101.1 238.1,92.4 241.5,94.4 					"/>
				</g>
			</g>
			<path class="st24" d="M221.3,87.7c2.8-1.6,5.1-0.3,5.1,2.9l0,12.5l0,3.2l0,12.5c0,3.2-2.3,7.2-5.1,8.8l-24.5,14.2
				c-2.8,1.6-5.1,0.3-5.1-2.9l0-12.5l0-3.2l0-12.5c0-3.2,2.3-7.2,5.1-8.8L221.3,87.7z"/>
			<path class="st35" d="M213.5,117.2c0-2.5-0.8-3.7-3.3-4.5c-2-0.7-2.5-1.4-2.5-3c0-1.5,0.5-2.4,1.5-3c0.9-0.5,1.5-0.3,1.5,1.3
				l0,0.9l2.8-1.6l0-0.7c0-2.9-1.1-4.1-3.2-3.4l0-1.6l-2.4,1.4l0,1.6c-2.1,1.7-3.1,4.2-3.1,7c0,2.5,0.8,3.7,3.2,4.5
				c2,0.6,2.5,1.4,2.5,3c0,1.5-0.6,2.4-1.5,3c-0.9,0.5-1.5,0.3-1.5-1.2l0-1.7l-2.8,1.6l0,1.5c0,2.9,1.1,4.2,3.2,3.4l0,1.6l2.4-1.4
				l0-1.6C212.4,122.6,213.5,120.1,213.5,117.2z"/>
			<path class="st8" d="M221.5,85.3c-0.9-0.5-2.2-0.5-3.6,0.4l-24.5,14.2c-2.8,1.6-5.1,5.6-5.1,8.8l0,12.5l0,3.2l0,12.5
				c0,1.6,0.6,2.7,1.5,3.3l3.4,2c-0.9-0.5-1.5-1.7-1.5-3.3l0-12.5l0-3.2l0-12.5c0-3.2,2.3-7.2,5.1-8.8l24.5-14.2
				c1.4-0.8,2.7-0.9,3.6-0.4L221.5,85.3z"/>
			<polygon class="st24" points="191.8,123.1 188.3,121.1 173.7,129.6 173.7,132.8 177.1,134.8 191.8,126.3 			"/>
			<g>
				<path class="st24" d="M168.6,148.2l-3.4-2c0.5-0.9,0.5-1.9,0-2.2l3.4,2C169.1,146.4,169.1,147.3,168.6,148.2z"/>
			</g>
			<path class="st8" d="M172.2,113.8c-0.9-0.5-2.2-0.5-3.6,0.4L144,128.3c-2.8,1.6-5.1,5.6-5.1,8.8l0.1,28.2c0,1.6,0.6,2.7,1.5,3.3
				l3.4,2c-0.9-0.5-1.5-1.7-1.5-3.3l-0.1-28.2c0-3.2,2.3-7.2,5.1-8.8l24.5-14.2c1.4-0.8,2.7-0.9,3.6-0.4L172.2,113.8z"/>
			<path class="st24" d="M172,116.2c2.8-1.6,5.1-0.3,5.1,2.9l0,12.5l0,3.2l0,12.5c0,3.2-2.3,7.2-5.1,8.8l-24.5,14.2
				c-2.8,1.6-5.1,0.3-5.1-2.9l-0.1-28.2c0-3.2,2.3-7.2,5.1-8.8L172,116.2z"/>
			<path class="st35" d="M168.6,146.1l-4.9-2.8c1.8-4.1,1.5-8.2-0.9-9.6c-1.4-0.8-3.1-0.5-4.9,0.5c-1.8,1-3.5,2.8-4.9,5.2
				c-2.7,4.7-2.7,9.7,0,11.3c1.4,0.8,3.1,0.5,4.9-0.5c1.4-0.8,2.7-2,3.9-3.6l4.9,2.8c0.3,0.1,0.6,0.1,0.9-0.1c0.3-0.2,0.7-0.5,0.9-1
				C169.1,147.3,169.1,146.4,168.6,146.1z M161,143.9c-0.8,1.4-1.9,2.6-3,3.2c-1.1,0.6-2.2,0.8-3,0.3c-1.7-1-1.7-4.1,0-7
				c0.8-1.4,1.9-2.6,3-3.2c1.1-0.6,2.2-0.8,3-0.3C162.6,137.9,162.7,141,161,143.9z"/>
		</g>
		<g>
			<g>
				<g class="st2">
					<g>
						<path class="st12" d="M325.8,243c-1.7,1-3,3.3-3,5.2l0.2,64c0,1.9,1.4,2.7,3,1.7l97.9-56.5c1.7-1,3-3.3,3-5.2l-0.2-64
							c0-1.9-1.4-2.7-3-1.7L325.8,243z"/>
					</g>
					<path class="st36" d="M424.5,185.5c-0.5-0.3-1.3-0.3-2.1,0.2l-97.9,56.5c-1.7,1-3,3.3-3,5.2l0.2,64c0,0.9,0.3,1.6,0.9,1.9
						l1.3,0.8c-0.5-0.3-0.9-1-0.9-1.9l-0.2-64c0-1.9,1.3-4.2,3-5.2l97.9-56.5c0.8-0.5,1.6-0.5,2.1-0.2L424.5,185.5z"/>
				</g>
			</g>
			<g>
				<g>
					<path class="st37" d="M410.5,240.4c3.1-1.8,5.7-0.4,5.7,3.3c0,3.6-2.5,8-5.7,9.8c-1.2,0.7-2.4,0.9-3.3,0.7
						c-1.4-0.4-2.4-1.8-2.4-3.9c0-2.2,0.9-4.7,2.4-6.7C408.2,242.2,409.3,241.1,410.5,240.4z"/>
				</g>
				<g>
					<path class="st38" d="M403.9,244.2c1.2-0.7,2.4-0.9,3.3-0.7c-1.4,2-2.4,4.5-2.4,6.7c0,2.2,1,3.6,2.4,3.9
						c-0.9,1.3-2.1,2.4-3.3,3.1c-3.1,1.8-5.7,0.4-5.7-3.3C398.3,250.4,400.8,246,403.9,244.2z"/>
				</g>
			</g>
			<g>
				<path class="st38" d="M353.4,245.5l0,9.5c0,0.9-0.5,1.7-1.2,2.1l-15,8.6c-1.6,0.9-3.7-0.2-3.7-2.1l0-9.5c0-0.9,0.5-1.7,1.2-2.1
					l15-8.6C351.4,242.4,353.4,243.6,353.4,245.5z"/>
			</g>
			<g>
				<polygon class="st24" points="416.3,205.8 416.3,209.7 385.5,227.5 385.4,223.7 				"/>
			</g>
			<g>
				<polygon class="st24" points="378.5,261.4 378.5,265.2 335,290.6 335,286.8 				"/>
			</g>
			<g>
				<polygon class="st24" points="378.5,268.8 378.5,272.7 335,298.1 335,294.2 				"/>
			</g>
			<g>
				<path class="st39" d="M337.1,274.1c-0.1-0.1-0.2-0.2-0.4-0.2c-0.2,0-0.4,0.1-0.6,0.2c-1,0.6-1.5,1.6-1.4,3.1
					c0,1.5,0.5,2,1.4,1.5c1-0.5,1.4-1.6,1.4-3.2c0-0.4,0-0.7-0.1-0.9C337.3,274.4,337.2,274.2,337.1,274.1z M336.7,277.4
					c-0.1,0.4-0.3,0.6-0.6,0.8c-0.5,0.3-0.8-0.1-0.8-1.3c0-0.6,0.1-1.1,0.2-1.4c0.1-0.4,0.3-0.6,0.6-0.8c0.3-0.2,0.5-0.2,0.6,0.1
					c0.1,0.2,0.2,0.6,0.2,1.2C336.8,276.6,336.8,277,336.7,277.4z"/>
				<path class="st39" d="M340.7,272.1c-0.1-0.1-0.2-0.2-0.4-0.2c-0.2,0-0.4,0.1-0.6,0.2c-1,0.6-1.5,1.6-1.4,3.1
					c0,1.5,0.5,2,1.4,1.5c1-0.5,1.4-1.6,1.4-3.2c0-0.4,0-0.7-0.1-0.9C340.9,272.4,340.8,272.2,340.7,272.1z M340.2,275.4
					c-0.1,0.4-0.3,0.6-0.6,0.8c-0.5,0.3-0.8-0.1-0.8-1.3c0-0.6,0.1-1.1,0.2-1.4c0.1-0.4,0.3-0.6,0.6-0.8c0.3-0.2,0.5-0.2,0.6,0.1
					c0.1,0.2,0.2,0.6,0.2,1.2C340.4,274.5,340.3,275,340.2,275.4z"/>
				<path class="st39" d="M344.2,270c-0.1-0.1-0.2-0.2-0.4-0.2c-0.2,0-0.4,0.1-0.6,0.2c-1,0.6-1.5,1.6-1.4,3.1c0,1.5,0.5,2,1.4,1.5
					c0.9-0.5,1.4-1.6,1.4-3.2c0-0.4,0-0.7-0.1-0.9S344.3,270.1,344.2,270z M343.7,273.3c-0.1,0.4-0.3,0.6-0.6,0.8
					c-0.5,0.3-0.8-0.1-0.8-1.3c0-0.6,0.1-1.1,0.2-1.4c0.1-0.4,0.3-0.6,0.6-0.8c0.3-0.2,0.5-0.2,0.6,0.1c0.1,0.2,0.2,0.6,0.2,1.2
					C343.9,272.5,343.9,273,343.7,273.3z"/>
				<path class="st39" d="M347.7,268c-0.1-0.1-0.2-0.2-0.4-0.2c-0.2,0-0.4,0.1-0.6,0.2c-1,0.6-1.5,1.6-1.4,3.1c0,1.5,0.5,2,1.4,1.5
					c0.9-0.5,1.4-1.6,1.4-3.2c0-0.4,0-0.7-0.1-0.9C347.9,268.3,347.8,268.1,347.7,268z M347.3,271.3c-0.1,0.4-0.3,0.6-0.6,0.8
					c-0.5,0.3-0.8-0.1-0.8-1.3c0-0.6,0.1-1.1,0.2-1.4c0.1-0.4,0.3-0.6,0.6-0.8c0.3-0.2,0.5-0.2,0.6,0.1c0.1,0.2,0.2,0.6,0.2,1.2
					C347.5,270.4,347.4,270.9,347.3,271.3z"/>
				<path class="st39" d="M352.5,265.2c-0.1-0.1-0.2-0.2-0.4-0.2c-0.2,0-0.4,0.1-0.6,0.2c-1,0.6-1.5,1.6-1.4,3.1
					c0,1.5,0.5,2,1.4,1.5c0.9-0.5,1.4-1.6,1.4-3.2c0-0.4,0-0.7-0.1-0.9C352.7,265.5,352.6,265.3,352.5,265.2z M352.1,268.5
					c-0.1,0.4-0.3,0.6-0.6,0.8c-0.5,0.3-0.8-0.1-0.8-1.3c0-0.6,0.1-1.1,0.2-1.4c0.1-0.4,0.3-0.6,0.6-0.8c0.3-0.2,0.5-0.2,0.6,0.1
					c0.1,0.2,0.2,0.6,0.2,1.2C352.3,267.7,352.2,268.1,352.1,268.5z"/>
				<path class="st39" d="M356.1,263.2c-0.1-0.1-0.2-0.2-0.4-0.2c-0.2,0-0.4,0.1-0.6,0.2c-1,0.6-1.5,1.6-1.4,3.1
					c0,1.5,0.5,2,1.4,1.5c1-0.5,1.4-1.6,1.4-3.2c0-0.4,0-0.7-0.1-0.9C356.3,263.5,356.2,263.3,356.1,263.2z M355.6,266.5
					c-0.1,0.4-0.3,0.6-0.6,0.8c-0.5,0.3-0.8-0.1-0.8-1.3c0-0.6,0.1-1.1,0.2-1.4c0.1-0.4,0.3-0.6,0.6-0.8c0.3-0.2,0.5-0.2,0.6,0.1
					c0.1,0.2,0.2,0.6,0.2,1.2C355.8,265.6,355.7,266.1,355.6,266.5z"/>
				<path class="st39" d="M359.6,261.1c-0.1-0.1-0.2-0.2-0.4-0.2c-0.2,0-0.4,0.1-0.6,0.2c-1,0.6-1.5,1.6-1.4,3.1
					c0,1.5,0.5,2,1.4,1.5c0.9-0.5,1.4-1.6,1.4-3.2c0-0.4,0-0.7-0.1-0.9C359.8,261.4,359.7,261.2,359.6,261.1z M359.1,264.4
					c-0.1,0.4-0.3,0.6-0.6,0.8c-0.5,0.3-0.8-0.1-0.8-1.3c0-0.6,0.1-1.1,0.2-1.4c0.1-0.4,0.3-0.6,0.6-0.8c0.3-0.2,0.5-0.2,0.6,0.1
					c0.1,0.2,0.2,0.6,0.2,1.2C359.3,263.6,359.3,264.1,359.1,264.4z"/>
				<path class="st39" d="M363.1,259.1c-0.1-0.1-0.2-0.2-0.4-0.2c-0.2,0-0.4,0.1-0.6,0.2c-1,0.6-1.5,1.6-1.4,3.1
					c0,1.5,0.5,2,1.4,1.5c0.9-0.5,1.4-1.6,1.4-3.2c0-0.4,0-0.7-0.1-0.9C363.3,259.4,363.3,259.2,363.1,259.1z M362.7,262.4
					c-0.1,0.4-0.3,0.6-0.6,0.8c-0.5,0.3-0.8-0.1-0.8-1.3c0-0.6,0.1-1.1,0.2-1.4c0.1-0.4,0.3-0.6,0.6-0.8c0.3-0.2,0.5-0.2,0.6,0.1
					c0.1,0.2,0.2,0.6,0.2,1.2C362.9,261.5,362.8,262,362.7,262.4z"/>
				<path class="st39" d="M367.9,256.3c-0.1-0.1-0.2-0.2-0.4-0.2c-0.2,0-0.4,0.1-0.6,0.2c-1,0.6-1.5,1.6-1.4,3.1
					c0,1.5,0.5,2,1.4,1.5c1-0.5,1.4-1.6,1.4-3.2c0-0.4,0-0.7-0.1-0.9C368.1,256.6,368,256.4,367.9,256.3z M367.5,259.6
					c-0.1,0.4-0.3,0.6-0.6,0.8c-0.5,0.3-0.8-0.1-0.8-1.3c0-0.6,0.1-1.1,0.2-1.4c0.1-0.4,0.3-0.6,0.6-0.8c0.3-0.2,0.5-0.2,0.6,0.1
					c0.1,0.2,0.2,0.6,0.2,1.2C367.7,258.8,367.6,259.3,367.5,259.6z"/>
				<path class="st39" d="M371.5,254.3c-0.1-0.1-0.2-0.2-0.4-0.2c-0.2,0-0.4,0.1-0.6,0.2c-1,0.6-1.5,1.6-1.4,3.1
					c0,1.5,0.5,2,1.4,1.5c0.9-0.5,1.4-1.6,1.4-3.2c0-0.4,0-0.7-0.1-0.9C371.7,254.6,371.6,254.4,371.5,254.3z M371,257.6
					c-0.1,0.4-0.3,0.6-0.6,0.8c-0.5,0.3-0.8-0.1-0.8-1.3c0-0.6,0.1-1.1,0.2-1.4c0.1-0.4,0.3-0.6,0.6-0.8c0.3-0.2,0.5-0.2,0.6,0.1
					c0.1,0.2,0.2,0.6,0.2,1.2C371.2,256.7,371.1,257.2,371,257.6z"/>
				<path class="st39" d="M375,252.2c-0.1-0.1-0.2-0.2-0.4-0.2c-0.2,0-0.4,0.1-0.6,0.2c-1,0.6-1.5,1.6-1.4,3.1c0,1.5,0.5,2,1.4,1.5
					c1-0.5,1.4-1.6,1.4-3.2c0-0.4,0-0.7-0.1-0.9C375.2,252.5,375.1,252.3,375,252.2z M374.5,255.5c-0.1,0.4-0.3,0.6-0.6,0.8
					c-0.5,0.3-0.8-0.1-0.8-1.3c0-0.6,0.1-1.1,0.2-1.4c0.1-0.4,0.3-0.6,0.6-0.8c0.3-0.2,0.5-0.2,0.6,0.1c0.1,0.2,0.2,0.6,0.2,1.2
					C374.7,254.7,374.7,255.2,374.5,255.5z"/>
				<path class="st39" d="M378.5,250.2c-0.1-0.1-0.2-0.2-0.4-0.2c-0.2,0-0.4,0.1-0.6,0.2c-1,0.6-1.5,1.6-1.4,3.1
					c0,1.5,0.5,2,1.4,1.5c0.9-0.5,1.4-1.6,1.4-3.2c0-0.4,0-0.7-0.1-0.9C378.7,250.5,378.7,250.3,378.5,250.2z M378.1,253.5
					c-0.1,0.4-0.3,0.6-0.6,0.8c-0.5,0.3-0.8-0.1-0.8-1.3c0-0.6,0.1-1.1,0.2-1.4c0.1-0.4,0.3-0.6,0.6-0.8c0.3-0.2,0.5-0.2,0.6,0.1
					c0.1,0.2,0.2,0.6,0.2,1.2C378.3,252.6,378.2,253.1,378.1,253.5z"/>
				<path class="st39" d="M383.3,247.4c-0.1-0.1-0.2-0.2-0.4-0.2c-0.2,0-0.4,0.1-0.6,0.2c-1,0.6-1.5,1.6-1.4,3.1
					c0,1.5,0.5,2,1.4,1.5c0.9-0.5,1.4-1.6,1.4-3.2c0-0.4,0-0.7-0.1-0.9C383.5,247.7,383.5,247.5,383.3,247.4z M382.9,250.7
					c-0.1,0.4-0.3,0.6-0.6,0.8c-0.5,0.3-0.8-0.1-0.8-1.3c0-0.6,0.1-1.1,0.2-1.4c0.1-0.4,0.3-0.6,0.6-0.8c0.3-0.2,0.5-0.2,0.6,0.1
					c0.1,0.2,0.2,0.6,0.2,1.2C383.1,249.9,383,250.4,382.9,250.7z"/>
				<path class="st39" d="M386.9,245.4c-0.1-0.1-0.2-0.2-0.4-0.2c-0.2,0-0.4,0.1-0.6,0.2c-1,0.6-1.5,1.6-1.4,3.1
					c0,1.5,0.5,2,1.4,1.5c1-0.5,1.4-1.6,1.4-3.2c0-0.4,0-0.7-0.1-0.9C387.1,245.7,387,245.5,386.9,245.4z M386.4,248.7
					c-0.1,0.4-0.3,0.6-0.6,0.8c-0.5,0.3-0.8-0.1-0.8-1.3c0-0.6,0.1-1.1,0.2-1.4c0.1-0.4,0.3-0.6,0.6-0.8c0.3-0.2,0.5-0.2,0.6,0.1
					c0.1,0.2,0.2,0.6,0.2,1.2C386.6,247.8,386.5,248.3,386.4,248.7z"/>
				<path class="st39" d="M390.4,243.3c-0.1-0.1-0.2-0.2-0.4-0.2c-0.2,0-0.4,0.1-0.6,0.2c-1,0.6-1.5,1.6-1.4,3.1
					c0,1.5,0.5,2,1.4,1.5c0.9-0.5,1.4-1.6,1.4-3.2c0-0.4,0-0.7-0.1-0.9C390.6,243.6,390.5,243.5,390.4,243.3z M389.9,246.6
					c-0.1,0.4-0.3,0.6-0.6,0.8c-0.5,0.3-0.8-0.1-0.8-1.3c0-0.6,0.1-1.1,0.2-1.4c0.1-0.4,0.3-0.6,0.6-0.8c0.3-0.2,0.5-0.2,0.6,0.1
					c0.1,0.2,0.2,0.6,0.2,1.2C390.1,245.8,390.1,246.3,389.9,246.6z"/>
				<path class="st39" d="M394.2,241.8c0-0.2-0.1-0.4-0.2-0.6c-0.1-0.1-0.2-0.2-0.4-0.2c-0.2,0-0.4,0.1-0.6,0.2
					c-1,0.6-1.5,1.6-1.4,3.1c0,1.5,0.5,2,1.4,1.5c1-0.5,1.4-1.6,1.4-3.2C394.3,242.4,394.2,242.1,394.2,241.8z M393.5,244.6
					c-0.1,0.4-0.3,0.6-0.6,0.8c-0.5,0.3-0.8-0.1-0.8-1.3c0-0.6,0.1-1.1,0.2-1.4c0.1-0.4,0.3-0.6,0.6-0.8c0.3-0.2,0.5-0.2,0.6,0.1
					c0.1,0.2,0.2,0.6,0.2,1.2C393.7,243.8,393.6,244.2,393.5,244.6z"/>
			</g>
		</g>
		<g>
			<polygon class="st40" points="336.7,327.3 309.1,343.3 363.4,374.6 391,358.6 			"/>
			<path class="st41" d="M383.5,356.7L340,331.6c-1.8,1-4.6,1-6.4,0l-17,9.9c1.8,1,1.8,2.7,0,3.7l43.5,25.1c1.8-1,4.6-1,6.4,0
				l17-9.9C381.7,359.4,381.7,357.8,383.5,356.7z"/>
			<g>
				<path class="st40" d="M336.4,340c1.4,0.8,1.5,2.2,0,3c-1.4,0.8-3.8,0.8-5.2,0c-1.4-0.8-1.5-2.2,0-3
					C332.6,339.2,334.9,339.2,336.4,340z"/>
			</g>
			<path class="st40" d="M358.7,345.9c-4.8-2.8-12.5-2.8-17.3,0c-4.8,2.8-4.7,7.2,0,10c4.8,2.8,12.5,2.8,17.3,0
				C363.5,353.2,363.5,348.7,358.7,345.9z"/>
			<g>
				<path class="st40" d="M369,358.8c1.4,0.8,1.5,2.2,0,3c-1.4,0.8-3.8,0.8-5.2,0c-1.4-0.8-1.5-2.2,0-3
					C365.2,358,367.5,358,369,358.8z"/>
			</g>
			<g>
				<path class="st13" d="M355.8,348.3l-0.6,0.3c0.3,0.3,0.4,0.5,0.5,0.8c0,0.5-0.2,0.9-0.8,1.3l-1.6-0.6c0.3-0.2,0.5-0.5,0.6-0.7
					c0-0.2-0.1-0.3-0.3-0.4c-0.3-0.1-0.6-0.2-0.9-0.1c-0.3,0-0.6,0.1-0.8,0.3c-0.4,0.2-0.7,0.6-0.7,1.1c0,0.2,0,0.4,0,0.7
					c0.1,0.3,0.1,0.6,0.1,0.7c0,0.4-0.1,0.7-0.2,1c-0.2,0.4-0.5,0.8-0.9,1c-0.8,0.5-1.6,0.7-2.5,0.7c-0.5,0-1-0.1-1.5-0.3l-0.6,0.4
					l-1.2-0.7l0.7-0.4c-0.4-0.4-0.5-0.8-0.3-1.3c0.2-0.4,0.5-0.8,1.1-1.1l1.4,0.7c-0.5,0.3-0.7,0.6-0.7,0.9c0,0.2,0.1,0.3,0.3,0.5
					c0,0,0,0,0,0c0.3,0.2,0.7,0.2,1.2,0.2c0.2,0,0.5-0.1,0.7-0.3c0.4-0.2,0.6-0.5,0.6-0.9c0-0.3,0-0.8-0.1-1.4c0-0.5,0-0.9,0.2-1.2
					c0.2-0.4,0.5-0.7,1-1c0.5-0.3,1-0.5,1.6-0.6c0.8-0.1,1.5-0.1,2.1,0.2l0.6-0.3L355.8,348.3z"/>
			</g>
			<g>
				<polygon class="st42" points="391,358.6 390.9,374.9 363.3,390.9 363.4,374.6 				"/>
			</g>
			<g>
				<polygon class="st43" points="363.4,374.6 363.3,390.9 309.1,359.6 309.1,343.3 				"/>
			</g>
		</g>
		<g>
			<polygon class="st40" points="413.9,297.9 360.1,329.2 387.8,345.2 441.7,313.9 			"/>
			<path class="st41" d="M434.3,312.1l-17.1-9.9c-1.8,1-4.6,1-6.4,0l-43.3,25.1c1.8,1,1.8,2.7,0,3.7l17.1,9.9c1.8-1,4.6-1,6.4,0
				l43.3-25.1C432.5,314.8,432.5,313.1,434.3,312.1z"/>
			<g>
				<path class="st40" d="M419.7,310.6c1.4,0.8,1.5,2.2,0,3c-1.4,0.8-3.8,0.8-5.2,0c-1.4-0.8-1.5-2.2,0-3
					C415.9,309.8,418.2,309.8,419.7,310.6z"/>
			</g>
			<path class="st40" d="M409.5,316.6c-4.8-2.8-12.5-2.8-17.3,0c-4.8,2.8-4.7,7.2,0.1,10c4.8,2.8,12.5,2.8,17.3,0
				C414.3,323.8,414.3,319.3,409.5,316.6z M405.5,324.9l-0.7-0.4c-0.7,0.2-1.4,0.3-2.2,0.2c-0.7-0.1-1.3-0.3-2-0.6l1.2-0.8
				c0.6,0.3,1.1,0.4,1.6,0.4c0.4,0,0.6,0,0.8-0.2c0.3-0.2,0.4-0.4,0.3-0.7c-0.1-0.1-0.2-0.3-0.5-0.4c-0.4-0.2-0.9-0.3-1.6-0.4
				c-0.5,0-1.3,0-2.4,0c-0.8,0-1.5,0-2-0.1c-0.6-0.1-1.2-0.3-1.7-0.6c-0.5-0.3-0.8-0.6-1-0.9c-0.2-0.4-0.1-0.8,0.3-1.2l-0.6-0.3
				l1.2-0.7l0.6,0.3c0.4-0.2,0.9-0.3,1.4-0.3c0.8,0,1.6,0.1,2.3,0.5l-1.1,0.9c-0.4-0.2-0.8-0.3-1.2-0.3c-0.3,0-0.5,0-0.7,0.2
				c-0.3,0.1-0.3,0.3-0.2,0.5c0.1,0.2,0.2,0.3,0.5,0.5c0.4,0.2,1,0.4,1.8,0.4c0.3,0,0.7,0,1.2,0c0.6,0,1,0,1.2,0
				c0.7,0,1.3,0,1.8,0.1c0.7,0.1,1.3,0.3,1.7,0.5c0,0,0.1,0,0.1,0.1c0.7,0.4,1.1,0.9,1.1,1.4c0,0.3-0.2,0.6-0.5,0.9l0.6,0.4
				L405.5,324.9z"/>
			<g>
				<path class="st13" d="M405.5,321.6c0.7,0.4,1.1,0.9,1.1,1.4c0,0.3-0.2,0.6-0.5,0.9l0.6,0.4l-1.2,0.7l-0.7-0.4
					c-0.7,0.2-1.4,0.3-2.2,0.2c-0.7-0.1-1.3-0.3-2-0.6l1.2-0.8c0.6,0.3,1.1,0.4,1.6,0.4c0.4,0,0.6,0,0.8-0.2
					c0.3-0.2,0.4-0.4,0.3-0.7c-0.1-0.1-0.2-0.3-0.5-0.4c-0.4-0.2-0.9-0.3-1.6-0.4c-0.5,0-1.3,0-2.4,0c-0.8,0-1.5,0-2-0.1
					c-0.6-0.1-1.2-0.3-1.7-0.6c-0.5-0.3-0.8-0.6-1-0.9c-0.2-0.4-0.1-0.8,0.3-1.2l-0.6-0.3l1.2-0.7l0.6,0.3c0.4-0.2,0.9-0.3,1.4-0.3
					c0.8,0,1.6,0.1,2.3,0.5l-1.1,0.9c-0.4-0.2-0.8-0.3-1.2-0.3c-0.3,0-0.5,0-0.8,0.2c-0.3,0.1-0.3,0.3-0.2,0.5
					c0.1,0.2,0.2,0.3,0.5,0.5c0.4,0.2,1,0.4,1.8,0.4c0.3,0,0.7,0,1.2,0c0.6,0,1,0,1.2,0c0.7,0,1.3,0,1.8,0.1
					C404.4,321.2,405,321.3,405.5,321.6C405.4,321.6,405.5,321.6,405.5,321.6z"/>
			</g>
			<g>
				<path class="st40" d="M387.3,329.5c1.4,0.8,1.5,2.2,0,3c-1.4,0.8-3.8,0.8-5.2,0c-1.4-0.8-1.5-2.2,0-3S385.9,328.6,387.3,329.5z"
					/>
			</g>
		</g>
	</g>
</g>
</svg>
